<svg xmlns="http://www.w3.org/2000/svg" xmlns:svg="http://www.w3.org/2000/svg" id="svg2" width="64" height="64" version="1.1"><metadata id="metadata7"/><g id="layer1" transform="translate(0,-988.36218)"><rect style="fill:#000;fill-opacity:1;stroke:#000;stroke-width:0;stroke-linecap:butt;stroke-linejoin:miter;stroke-miterlimit:0;stroke-opacity:1;stroke-dasharray:none" id="rect3880" width="4" height="2" x="0" y="1003.362"/><rect style="fill:#000;fill-opacity:1;stroke:#000;stroke-width:0;stroke-linecap:butt;stroke-linejoin:miter;stroke-miterlimit:0;stroke-opacity:1;stroke-dasharray:none" id="rect3880-1" width="4" height="2" x="0" y="1035.362"/><rect style="fill:#000;fill-opacity:1;stroke:#000;stroke-width:0;stroke-linecap:butt;stroke-linejoin:miter;stroke-miterlimit:0;stroke-opacity:1;stroke-dasharray:none" id="rect3880-1-7" width="4" height="2" x="60" y="1003.362"/><rect style="fill:#000;fill-opacity:1;stroke:#000;stroke-width:0;stroke-linecap:butt;stroke-linejoin:miter;stroke-miterlimit:0;stroke-opacity:1;stroke-dasharray:none" id="rect3880-1-7-4" width="4" height="2" x="60" y="1035.362"/><rect style="fill:#000;fill-opacity:1;stroke:#000;stroke-width:0;stroke-linecap:butt;stroke-linejoin:miter;stroke-miterlimit:0;stroke-dasharray:none;stroke-opacity:1" id="rect3880-0" width="24.05" height="1.188" x="20" y="1015.768"/><path style="fill:none;stroke:#000;stroke-width:2;stroke-linecap:butt;stroke-linejoin:miter;stroke-miterlimit:4;stroke-opacity:1" id="path3909" d="m 20.190939,1016.3912 c -2.727844,-0.2332 -4.854091,-1.6454 -5.386257,-2.463 -0.600298,-0.9223 -1.825207,-3.1963 -2.887612,-4.8923 -1.053476,-1.6818 -2.2256099,-3.3725 -3.0390361,-3.962 -0.7246268,-0.5252 -2.4672914,-0.7403 -4.9280952,-0.7085"/><path style="fill:none;stroke:#000;stroke-width:2;stroke-linecap:butt;stroke-linejoin:miter;stroke-miterlimit:4;stroke-opacity:1" id="path3909-4" d="m 60.241352,1004.3654 c -2.727903,0.2329 -4.854196,1.6447 -5.386374,2.4624 -0.600311,0.9221 -1.825246,3.1954 -2.887674,4.8912 -1.053499,1.6814 -2.225658,3.3715 -3.039102,3.9608 -0.724642,0.5252 -2.467345,0.7404 -4.928202,0.7083"/><path style="fill:none;stroke:#000;stroke-width:2;stroke-linecap:butt;stroke-linejoin:miter;stroke-miterlimit:4;stroke-opacity:1" id="path3909-8" d="m 60.269449,1036.3622 c -2.727844,-0.2332 -4.854091,-1.645 -5.386257,-2.4625 -0.600298,-0.9222 -1.825207,-3.1958 -2.887612,-4.8914 -1.053476,-1.6815 -2.225609,-3.3717 -3.039036,-3.9611 -0.724626,-0.5252 -2.467291,-0.7404 -4.928095,-0.7084"/><path style="fill:none;stroke:#000;stroke-width:2;stroke-linecap:butt;stroke-linejoin:miter;stroke-miterlimit:4;stroke-opacity:1" id="path3909-82" d="m 20.191291,1024.3359 c -2.727903,0.2328 -4.854196,1.6447 -5.386374,2.4623 -0.600311,0.9223 -1.825246,3.1957 -2.887674,4.8915 -1.053499,1.6815 -2.2256583,3.3717 -3.0391025,3.9611 -0.724642,0.5251 -2.467345,0.7404 -4.9282018,0.7083"/><text style="font-style:normal;font-variant:normal;font-weight:400;font-stretch:normal;line-height:0%;font-family:sans-serif;-inkscape-font-specification:Sans;text-align:start;letter-spacing:0;word-spacing:0;writing-mode:lr-tb;text-anchor:start;fill:#000;fill-opacity:1;stroke:none" id="text2985" x="26.794" y="1048.03" xml:space="preserve"><tspan id="tspan2989" x="26.794" y="1048.03" style="font-style:normal;font-variant:normal;font-weight:700;font-stretch:normal;font-size:10px;line-height:125%;font-family:sans-serif;-inkscape-font-specification:'Sans Bold';text-align:start;writing-mode:lr-tb;text-anchor:start">ebeam</tspan></text><rect style="fill:#000;fill-opacity:1;stroke:#000;stroke-width:0;stroke-linecap:butt;stroke-linejoin:miter;stroke-miterlimit:0;stroke-dasharray:none;stroke-opacity:1" id="rect3880-0-8" width="2.675" height="4.688" x="20.163" y="1013.831"/><rect style="fill:#000;fill-opacity:1;stroke:#000;stroke-width:0;stroke-linecap:butt;stroke-linejoin:miter;stroke-miterlimit:0;stroke-dasharray:none;stroke-opacity:1" id="rect3880-0-8-9" width="2.675" height="4.688" x="24.838" y="1013.831"/><rect style="fill:#000;fill-opacity:1;stroke:#000;stroke-width:0;stroke-linecap:butt;stroke-linejoin:miter;stroke-miterlimit:0;stroke-dasharray:none;stroke-opacity:1" id="rect3880-0-8-5" width="2.675" height="4.688" x="29.513" y="1013.831"/><rect style="fill:#000;fill-opacity:1;stroke:#000;stroke-width:0;stroke-linecap:butt;stroke-linejoin:miter;stroke-miterlimit:0;stroke-dasharray:none;stroke-opacity:1" id="rect3880-0-8-9-9" width="2.675" height="4.688" x="34.188" y="1013.831"/><rect style="fill:#000;fill-opacity:1;stroke:#000;stroke-width:0;stroke-linecap:butt;stroke-linejoin:miter;stroke-miterlimit:0;stroke-dasharray:none;stroke-opacity:1" id="rect3880-0-8-5-4" width="2.675" height="4.688" x="38.862" y="1013.831"/><rect style="fill:#000;fill-opacity:1;stroke:#000;stroke-width:0;stroke-linecap:butt;stroke-linejoin:miter;stroke-miterlimit:0;stroke-dasharray:none;stroke-opacity:1" id="rect3880-0-8-9-9-7" width="2.675" height="4.688" x="43.537" y="1013.831"/><rect style="fill:#000;fill-opacity:1;stroke:#000;stroke-width:0;stroke-linecap:butt;stroke-linejoin:miter;stroke-miterlimit:0;stroke-dasharray:none;stroke-opacity:1" id="rect3880-0-80" width="24.05" height="1.188" x="19.941" y="1023.68"/><rect style="fill:#000;fill-opacity:1;stroke:#000;stroke-width:0;stroke-linecap:butt;stroke-linejoin:miter;stroke-miterlimit:0;stroke-dasharray:none;stroke-opacity:1" id="rect3880-0-8-95" width="2.675" height="4.688" x="20.104" y="1021.742"/><rect style="fill:#000;fill-opacity:1;stroke:#000;stroke-width:0;stroke-linecap:butt;stroke-linejoin:miter;stroke-miterlimit:0;stroke-dasharray:none;stroke-opacity:1" id="rect3880-0-8-9-1" width="2.675" height="4.688" x="24.779" y="1021.742"/><rect style="fill:#000;fill-opacity:1;stroke:#000;stroke-width:0;stroke-linecap:butt;stroke-linejoin:miter;stroke-miterlimit:0;stroke-dasharray:none;stroke-opacity:1" id="rect3880-0-8-5-5" width="2.675" height="4.688" x="29.454" y="1021.742"/><rect style="fill:#000;fill-opacity:1;stroke:#000;stroke-width:0;stroke-linecap:butt;stroke-linejoin:miter;stroke-miterlimit:0;stroke-dasharray:none;stroke-opacity:1" id="rect3880-0-8-9-9-3" width="2.675" height="4.688" x="34.129" y="1021.742"/><rect style="fill:#000;fill-opacity:1;stroke:#000;stroke-width:0;stroke-linecap:butt;stroke-linejoin:miter;stroke-miterlimit:0;stroke-dasharray:none;stroke-opacity:1" id="rect3880-0-8-5-4-9" width="2.675" height="4.688" x="38.804" y="1021.742"/><rect style="fill:#000;fill-opacity:1;stroke:#000;stroke-width:0;stroke-linecap:butt;stroke-linejoin:miter;stroke-miterlimit:0;stroke-dasharray:none;stroke-opacity:1" id="rect3880-0-8-9-9-7-0" width="2.675" height="4.688" x="43.479" y="1021.742"/></g></svg>