<svg xmlns="http://www.w3.org/2000/svg" xmlns:svg="http://www.w3.org/2000/svg" id="svg2" width="64" height="64" version="1.1"><metadata id="metadata7"/><g id="layer1" transform="translate(0,-988.36218)"><text style="font-size:12px;font-style:normal;font-variant:normal;font-weight:400;font-stretch:normal;text-align:start;line-height:125%;letter-spacing:0;word-spacing:0;writing-mode:lr-tb;text-anchor:start;fill:#000;fill-opacity:1;stroke:none;font-family:Sans;-inkscape-font-specification:Sans" id="text2985" x="28.794" y="1048.03" xml:space="preserve"><tspan id="tspan2989" x="28.794" y="1048.03" style="font-size:10px;font-style:normal;font-variant:normal;font-weight:700;font-stretch:normal;text-align:start;line-height:125%;writing-mode:lr-tb;text-anchor:start;font-family:Sans;-inkscape-font-specification:Sans Bold">ebeam</tspan></text><path style="fill:none;stroke:#000;stroke-width:1.59022343;stroke-linecap:round;stroke-linejoin:miter;stroke-miterlimit:4;stroke-opacity:1;stroke-dasharray:none" id="path3779" d="m 17.930204,40.783569 c -5.410289,-3.206708 -7.263991,-10.308811 -4.140359,-15.862991 0.992807,-1.765326 2.420768,-3.231265 4.140359,-4.250476" transform="matrix(1.0604969,0,0,1.491538,-7.0149271,974.53194)"/><path style="fill:none;stroke:#000;stroke-width:1.87121081;stroke-linecap:round;stroke-linejoin:miter;stroke-miterlimit:4;stroke-opacity:1;stroke-dasharray:none" id="path3779-1" d="m 17.930204,40.783569 c -5.410289,-3.206708 -7.263991,-10.308811 -4.140359,-15.862991 0.992807,-1.765326 2.420768,-3.231265 4.140359,-4.250476" transform="matrix(0.88374744,0,0,1.2926663,1.1542277,980.64264)"/><path style="fill:none;stroke:#000;stroke-width:2.27432775;stroke-linecap:round;stroke-linejoin:miter;stroke-miterlimit:4;stroke-opacity:1;stroke-dasharray:none" id="path3779-1-7" d="m 17.930204,40.783569 c -5.410289,-3.206708 -7.263991,-10.308811 -4.140359,-15.862991 0.992807,-1.765326 2.420768,-3.231265 4.140359,-4.250476" transform="matrix(0.70699798,0,0,1.0937945,9.3233818,986.75334)"/><path style="fill:none;stroke:#000;stroke-width:2.90333748;stroke-linecap:round;stroke-linejoin:miter;stroke-miterlimit:4;stroke-opacity:1;stroke-dasharray:none" id="path3779-1-7-4" d="m 17.930204,40.783569 c -5.410289,-3.206708 -7.263991,-10.308811 -4.140359,-15.862991 0.992807,-1.765326 2.420768,-3.231265 4.140359,-4.250476" transform="matrix(0.53024845,0,0,0.8949228,17.492537,992.86403)"/><path style="fill:none;stroke:#000;stroke-width:4.0319523799999999;stroke-linecap:round;stroke-linejoin:round;stroke-miterlimit:4;stroke-opacity:1;stroke-dasharray:none" id="path3779-1-7-4-0" d="m 17.930204,40.783569 c -5.410289,-3.206708 -7.263991,-10.308811 -4.140359,-15.862991 0.992807,-1.765326 2.420768,-3.231265 4.140359,-4.250476" transform="matrix(0.35349897,0,0,0.69605106,25.661691,998.97473)"/><path style="fill:none;stroke:#000;stroke-width:6.74674702;stroke-linecap:round;stroke-linejoin:round;stroke-miterlimit:4;stroke-opacity:1;stroke-dasharray:none" id="path3779-1-7-4-0-9" d="m 17.930204,40.783569 c -5.410289,-3.206708 -7.263991,-10.308811 -4.140359,-15.862991 0.992807,-1.765326 2.420768,-3.231265 4.140359,-4.250476" transform="matrix(0.17674947,0,0,0.49717933,33.830846,1005.0854)"/><rect style="fill:#000;fill-opacity:1;stroke:#000;stroke-width:1;stroke-linecap:butt;stroke-linejoin:miter;stroke-miterlimit:4;stroke-opacity:1;stroke-dasharray:none" id="rect3880" width="15" height="3" x="48.5" y="1018.862"/><path style="fill:#000;fill-opacity:1;stroke:#000;stroke-width:.73991019;stroke-linecap:round;stroke-linejoin:round;stroke-miterlimit:4;stroke-opacity:1;stroke-dasharray:none" id="path3890" d="m -13.477738,0.94344173 -8.844766,5.10652737 10e-7,-10.2130551 z" transform="matrix(1.6959184,0,0,1.0770528,74.857145,1019.346)"/></g></svg>