<svg xmlns="http://www.w3.org/2000/svg" xmlns:svg="http://www.w3.org/2000/svg" id="svg2" width="64" height="64" version="1.1"><metadata id="metadata7"/><g id="layer1" transform="translate(0,-988.36218)"><rect style="fill:#000;fill-opacity:1;stroke:#000;stroke-width:0;stroke-linecap:butt;stroke-linejoin:miter;stroke-miterlimit:0;stroke-opacity:1;stroke-dasharray:none" id="rect3880" width="16.5" height="4" x="0" y="1018.362"/><rect style="fill:#000;fill-opacity:1;stroke:#000;stroke-width:0;stroke-linecap:butt;stroke-linejoin:miter;stroke-miterlimit:0;stroke-opacity:1;stroke-dasharray:none" id="rect3880-1-7" width="4" height="4" x="60" y="1002.362"/><rect style="fill:#000;fill-opacity:1;stroke:#000;stroke-width:0;stroke-linecap:butt;stroke-linejoin:miter;stroke-miterlimit:0;stroke-opacity:1;stroke-dasharray:none" id="rect3880-1-7-4" width="4" height="4" x="60" y="1034.362"/><rect style="fill:#000;fill-opacity:1;stroke:#000;stroke-width:0;stroke-linecap:butt;stroke-linejoin:miter;stroke-miterlimit:0;stroke-opacity:1;stroke-dasharray:none" id="rect3880-0" width="24.5" height="9" x="16" y="1015.862"/><path style="fill:none;stroke:#000;stroke-width:4;stroke-linecap:butt;stroke-linejoin:miter;stroke-miterlimit:4;stroke-opacity:1;stroke-dasharray:none" id="path3909-4" d="m 60.178852,1004.3654 c -3.715465,0.1215 -5.762198,1.961 -6.586927,2.9359 -0.791872,0.9361 -1.853273,2.6773 -2.484866,3.7068 -0.831789,1.3558 -2.577179,3.7875 -3.312366,4.4901 -0.654927,0.6262 -3.548486,2.3661 -7.835096,2.359"/><path style="fill:none;stroke:#000;stroke-width:4;stroke-linecap:butt;stroke-linejoin:miter;stroke-miterlimit:4;stroke-opacity:1;stroke-dasharray:none" id="path3909-4-4" d="m 60.178852,1036.3622 c -3.715465,-0.1215 -5.762198,-1.961 -6.586927,-2.9359 -0.791872,-0.9361 -1.853273,-2.6773 -2.484866,-3.7068 -0.831789,-1.3558 -2.577179,-3.7875 -3.312366,-4.4901 -0.654927,-0.6262 -3.548486,-2.3661 -7.835096,-2.359"/><text style="font-size:12px;font-style:normal;font-variant:normal;font-weight:400;font-stretch:normal;text-align:start;line-height:125%;letter-spacing:0;word-spacing:0;writing-mode:lr-tb;text-anchor:start;fill:#000;fill-opacity:1;stroke:none;font-family:Sans;-inkscape-font-specification:Sans" id="text2985" x="28.794" y="1048.03" xml:space="preserve"><tspan id="tspan2989" x="28.794" y="1048.03" style="font-size:10px;font-style:normal;font-variant:normal;font-weight:700;font-stretch:normal;text-align:start;line-height:125%;writing-mode:lr-tb;text-anchor:start;font-family:Sans;-inkscape-font-specification:Sans Bold">ebeam</tspan></text></g></svg>