<svg xmlns="http://www.w3.org/2000/svg" xmlns:xlink="http://www.w3.org/1999/xlink" width="799" height="451" viewBox="0 0 711.696 401.458" xml:space="preserve" style="shape-rendering:geometricPrecision;text-rendering:geometricPrecision;image-rendering:optimizeQuality;fill-rule:evenodd;clip-rule:evenodd"><defs><style type="text/css">.str0,.str1{stroke:red}.str1{stroke-width:16.3031}.str0{stroke-width:16.3037}.fil0,.fil1{fill:red}.fil0{fill-rule:nonzero}</style></defs><g id="Capa_x0020_1"><metadata id="CorelCorpID_0Corel-Layer"/><path id="logotype:circle" d="M259.762 218.973c-10.7492,33.5975 -46.6959,52.117 -80.2928,41.3678 -33.5946,-10.7474 -52.117,-46.6953 -41.3678,-80.2928 10.7474,-33.594 46.6953,-52.117 80.2922,-41.3678 33.5946,10.748 52.1158,46.6988 41.3684,80.2928z" class="fil0 str0"/><g id="g22195"><path id="path22197" d="M202.505 201.11l126.703 -32.5231m-126.703 32.5231l0 0 0 0z" class="fil1 str0"/><path id="path22199" d="M202.225 201.751l509.444 1.77969m-509.444 -1.77969l0 0 0 0z" class="fil1 str0"/></g><g id="logo:beam"><path id="short_x0020_beam" d="M198.806 197.566l-28.181 -127.74m28.181 127.74l0 0 0 0z" class="fil1 str0"/><path id="long_x0020_beam" d="M199.437 197.868l6.8825 -197.558m-6.8825 197.558l0 0 0 0z" class="fil1 str0"/></g><g id="_53027072"><g><path id="_52994400" d="M197.356 198.696l-88.5056 -96.3221m88.5056 96.3221l0 0 0 0z" class="fil1 str0"/><path id="_53016832" d="M198.053 198.641l-93.2393 -174.308m93.2393 174.308l0 0 0 0z" class="fil1 str0"/></g></g><g id="_51287528"><g><path id="_53041520" d="M196.67 200.439l-125.351 -37.4018m125.351 37.4018l0 0 0 0z" class="fil1 str0"/><path id="_53055960" d="M197.24 200.034l-169.355 -101.957m169.355 101.957l0 0 0 0z" class="fil1 str0"/></g></g><g id="_53053992"><g><path id="_51235144" d="M197.425 204.876l-126.795 32.1655m126.795 -32.1655l0 0 0 0z" class="fil1 str1"/><path id="_52531008" d="M197.706 204.234l-197.675 -0.69085m197.675 0.69085l0 0 0 0z" class="fil1 str1"/></g></g><g id="_52536464"><g><path id="_52879288" d="M198.17 203.728l-92.5883 92.4035m92.5883 -92.4035l0 0 0 0z" class="fil1 str0"/><path id="_52536576" d="M198.084 203.032l-170.311 100.353m170.311 -100.353l0 0 0 0z" class="fil1 str0"/></g></g><g id="_52464856"><g><path id="_52536272" d="M199.889 204.342l-34.1451 126.275m34.1451 -126.275l0 0 0 0z" class="fil1 str0"/><path id="_52536096" d="M199.472 203.782l-97.5444 171.935m97.5444 -171.935l0 0 0 0z" class="fil1 str0"/></g></g><g id="_51588400"><g><path id="_52530568" d="M201.685 204.017l33.5091 126.447m-33.5091 -126.447l0 0 0 0z" class="fil1 str0"/><path id="_51588112" d="M201.043 203.739l1.40365 197.674m-1.40365 -197.674l0 0 0 0z" class="fil1 str0"/></g></g><g id="_51561752"><g><path id="_51588752" d="M203.058 202.863l91.2921 93.6922m-91.2921 -93.6922l0 0 0 0z" class="fil1 str0"/><path id="_51560512" d="M202.363 202.941l98.3057 171.503m-98.3057 -171.503l0 0 0 0z" class="fil1 str0"/></g></g><g id="_51590984"><g><path id="_51590224" d="M203.691 201.179l125.618 36.5007m-125.618 -36.5007l0 0 0 0z" class="fil1 str0"/><path id="_51590552" d="M203.123 201.588l170.084 100.738m-170.084 -100.738l0 0 0 0z" class="fil1 str0"/></g></g><g id="_51270408"><g><path id="_51591256" d="M202.316 198.008l96.6046 -88.1971m-96.6046 88.1971l0 0 0 0z" class="fil1 str0"/><path id="_51268448" d="M202.369 198.707l174.605 -92.6848m-174.605 92.6848l0 0 0 0z" class="fil1 str0"/></g></g><g id="_51272216"><g><path id="_51271064" d="M200.68 197.326l41.6173 -124.014m-41.6173 124.014l0 0 0 0z" class="fil1 str0"/><path id="_51271392" d="M201.067 197.91l107.623 -165.815m-107.623 165.815l0 0 0 0z" class="fil1 str0"/></g></g></g></svg>